<svg class="rich-terminal" viewBox="0 0 1238 782.0" xmlns="http://www.w3.org/2000/svg">
    <!-- Generated with Rich https://www.textualize.io -->
    <style>

    @font-face {
        font-family: "Fira Code";
        src: local("FiraCode-Regular"),
                url("https://cdnjs.cloudflare.com/ajax/libs/firacode/6.2.0/woff2/FiraCode-Regular.woff2") format("woff2"),
                url("https://cdnjs.cloudflare.com/ajax/libs/firacode/6.2.0/woff/FiraCode-Regular.woff") format("woff");
        font-style: normal;
        font-weight: 400;
    }
    @font-face {
        font-family: "Fira Code";
        src: local("FiraCode-Bold"),
                url("https://cdnjs.cloudflare.com/ajax/libs/firacode/6.2.0/woff2/FiraCode-Bold.woff2") format("woff2"),
                url("https://cdnjs.cloudflare.com/ajax/libs/firacode/6.2.0/woff/FiraCode-Bold.woff") format("woff");
        font-style: bold;
        font-weight: 700;
    }

    .terminal-1397639570-matrix {
        font-family: Fira Code, monospace;
        font-size: 20px;
        line-height: 24.4px;
        font-variant-east-asian: full-width;
    }

    .terminal-1397639570-title {
        font-size: 18px;
        font-weight: bold;
        font-family: arial;
    }

    .terminal-1397639570-r1 { fill: #c5c8c6 }
.terminal-1397639570-r2 { fill: #2e394c }
.terminal-1397639570-r3 { fill: #e1e3e5;font-weight: bold }
.terminal-1397639570-r4 { fill: #777d88 }
.terminal-1397639570-r5 { fill: #1e293b }
.terminal-1397639570-r6 { fill: #22d3ee }
.terminal-1397639570-r7 { fill: #e3e5e7;font-weight: bold }
.terminal-1397639570-r8 { fill: #e2e8f0 }
.terminal-1397639570-r9 { fill: #a2aab5 }
    </style>

    <defs>
    <clipPath id="terminal-1397639570-clip-terminal">
      <rect x="0" y="0" width="1219.0" height="731.0" />
    </clipPath>
    <clipPath id="terminal-1397639570-line-0">
    <rect x="0" y="1.5" width="1220" height="24.65"/>
            </clipPath>
<clipPath id="terminal-1397639570-line-1">
    <rect x="0" y="25.9" width="1220" height="24.65"/>
            </clipPath>
<clipPath id="terminal-1397639570-line-2">
    <rect x="0" y="50.3" width="1220" height="24.65"/>
            </clipPath>
<clipPath id="terminal-1397639570-line-3">
    <rect x="0" y="74.7" width="1220" height="24.65"/>
            </clipPath>
<clipPath id="terminal-1397639570-line-4">
    <rect x="0" y="99.1" width="1220" height="24.65"/>
            </clipPath>
<clipPath id="terminal-1397639570-line-5">
    <rect x="0" y="123.5" width="1220" height="24.65"/>
            </clipPath>
<clipPath id="terminal-1397639570-line-6">
    <rect x="0" y="147.9" width="1220" height="24.65"/>
            </clipPath>
<clipPath id="terminal-1397639570-line-7">
    <rect x="0" y="172.3" width="1220" height="24.65"/>
            </clipPath>
<clipPath id="terminal-1397639570-line-8">
    <rect x="0" y="196.7" width="1220" height="24.65"/>
            </clipPath>
<clipPath id="terminal-1397639570-line-9">
    <rect x="0" y="221.1" width="1220" height="24.65"/>
            </clipPath>
<clipPath id="terminal-1397639570-line-10">
    <rect x="0" y="245.5" width="1220" height="24.65"/>
            </clipPath>
<clipPath id="terminal-1397639570-line-11">
    <rect x="0" y="269.9" width="1220" height="24.65"/>
            </clipPath>
<clipPath id="terminal-1397639570-line-12">
    <rect x="0" y="294.3" width="1220" height="24.65"/>
            </clipPath>
<clipPath id="terminal-1397639570-line-13">
    <rect x="0" y="318.7" width="1220" height="24.65"/>
            </clipPath>
<clipPath id="terminal-1397639570-line-14">
    <rect x="0" y="343.1" width="1220" height="24.65"/>
            </clipPath>
<clipPath id="terminal-1397639570-line-15">
    <rect x="0" y="367.5" width="1220" height="24.65"/>
            </clipPath>
<clipPath id="terminal-1397639570-line-16">
    <rect x="0" y="391.9" width="1220" height="24.65"/>
            </clipPath>
<clipPath id="terminal-1397639570-line-17">
    <rect x="0" y="416.3" width="1220" height="24.65"/>
            </clipPath>
<clipPath id="terminal-1397639570-line-18">
    <rect x="0" y="440.7" width="1220" height="24.65"/>
            </clipPath>
<clipPath id="terminal-1397639570-line-19">
    <rect x="0" y="465.1" width="1220" height="24.65"/>
            </clipPath>
<clipPath id="terminal-1397639570-line-20">
    <rect x="0" y="489.5" width="1220" height="24.65"/>
            </clipPath>
<clipPath id="terminal-1397639570-line-21">
    <rect x="0" y="513.9" width="1220" height="24.65"/>
            </clipPath>
<clipPath id="terminal-1397639570-line-22">
    <rect x="0" y="538.3" width="1220" height="24.65"/>
            </clipPath>
<clipPath id="terminal-1397639570-line-23">
    <rect x="0" y="562.7" width="1220" height="24.65"/>
            </clipPath>
<clipPath id="terminal-1397639570-line-24">
    <rect x="0" y="587.1" width="1220" height="24.65"/>
            </clipPath>
<clipPath id="terminal-1397639570-line-25">
    <rect x="0" y="611.5" width="1220" height="24.65"/>
            </clipPath>
<clipPath id="terminal-1397639570-line-26">
    <rect x="0" y="635.9" width="1220" height="24.65"/>
            </clipPath>
<clipPath id="terminal-1397639570-line-27">
    <rect x="0" y="660.3" width="1220" height="24.65"/>
            </clipPath>
<clipPath id="terminal-1397639570-line-28">
    <rect x="0" y="684.7" width="1220" height="24.65"/>
            </clipPath>
    </defs>

    <rect fill="#292929" stroke="rgba(255,255,255,0.35)" stroke-width="1" x="1" y="1" width="1236" height="780" rx="8"/><text class="terminal-1397639570-title" fill="#c5c8c6" text-anchor="middle" x="618" y="27">▸&#160;kata</text>
            <g transform="translate(26,22)">
            <circle cx="0" cy="0" r="7" fill="#ff5f57"/>
            <circle cx="22" cy="0" r="7" fill="#febc2e"/>
            <circle cx="44" cy="0" r="7" fill="#28c840"/>
            </g>
        
    <g transform="translate(9, 41)" clip-path="url(#terminal-1397639570-clip-terminal)">
    <rect fill="#0f172a" x="0" y="1.5" width="1220" height="24.65" shape-rendering="crispEdges"/><rect fill="#0f172a" x="0" y="25.9" width="1220" height="24.65" shape-rendering="crispEdges"/><rect fill="#0f172a" x="0" y="50.3" width="1220" height="24.65" shape-rendering="crispEdges"/><rect fill="#0f172a" x="0" y="74.7" width="1220" height="24.65" shape-rendering="crispEdges"/><rect fill="#0f172a" x="0" y="99.1" width="1220" height="24.65" shape-rendering="crispEdges"/><rect fill="#0f172a" x="0" y="123.5" width="1220" height="24.65" shape-rendering="crispEdges"/><rect fill="#0f172a" x="0" y="147.9" width="1220" height="24.65" shape-rendering="crispEdges"/><rect fill="#0f172a" x="0" y="172.3" width="390.4" height="24.65" shape-rendering="crispEdges"/><rect fill="#1e293b" x="390.4" y="172.3" width="12.2" height="24.65" shape-rendering="crispEdges"/><rect fill="#1e293b" x="402.6" y="172.3" width="414.8" height="24.65" shape-rendering="crispEdges"/><rect fill="#1e293b" x="817.4" y="172.3" width="12.2" height="24.65" shape-rendering="crispEdges"/><rect fill="#0f172a" x="829.6" y="172.3" width="390.4" height="24.65" shape-rendering="crispEdges"/><rect fill="#0f172a" x="0" y="196.7" width="390.4" height="24.65" shape-rendering="crispEdges"/><rect fill="#1e293b" x="390.4" y="196.7" width="12.2" height="24.65" shape-rendering="crispEdges"/><rect fill="#1e293b" x="402.6" y="196.7" width="414.8" height="24.65" shape-rendering="crispEdges"/><rect fill="#1e293b" x="817.4" y="196.7" width="12.2" height="24.65" shape-rendering="crispEdges"/><rect fill="#0f172a" x="829.6" y="196.7" width="390.4" height="24.65" shape-rendering="crispEdges"/><rect fill="#0f172a" x="0" y="221.1" width="390.4" height="24.65" shape-rendering="crispEdges"/><rect fill="#1e293b" x="390.4" y="221.1" width="12.2" height="24.65" shape-rendering="crispEdges"/><rect fill="#1e293b" x="402.6" y="221.1" width="24.4" height="24.65" shape-rendering="crispEdges"/><rect fill="#1e293b" x="427" y="221.1" width="183" height="24.65" shape-rendering="crispEdges"/><rect fill="#1e293b" x="610" y="221.1" width="183" height="24.65" shape-rendering="crispEdges"/><rect fill="#1e293b" x="793" y="221.1" width="24.4" height="24.65" shape-rendering="crispEdges"/><rect fill="#1e293b" x="817.4" y="221.1" width="12.2" height="24.65" shape-rendering="crispEdges"/><rect fill="#0f172a" x="829.6" y="221.1" width="390.4" height="24.65" shape-rendering="crispEdges"/><rect fill="#0f172a" x="0" y="245.5" width="390.4" height="24.65" shape-rendering="crispEdges"/><rect fill="#1e293b" x="390.4" y="245.5" width="12.2" height="24.65" shape-rendering="crispEdges"/><rect fill="#1e293b" x="402.6" y="245.5" width="24.4" height="24.65" shape-rendering="crispEdges"/><rect fill="#1e293b" x="427" y="245.5" width="73.2" height="24.65" shape-rendering="crispEdges"/><rect fill="#1e293b" x="500.2" y="245.5" width="292.8" height="24.65" shape-rendering="crispEdges"/><rect fill="#1e293b" x="793" y="245.5" width="24.4" height="24.65" shape-rendering="crispEdges"/><rect fill="#1e293b" x="817.4" y="245.5" width="12.2" height="24.65" shape-rendering="crispEdges"/><rect fill="#0f172a" x="829.6" y="245.5" width="390.4" height="24.65" shape-rendering="crispEdges"/><rect fill="#0f172a" x="0" y="269.9" width="390.4" height="24.65" shape-rendering="crispEdges"/><rect fill="#1e293b" x="390.4" y="269.9" width="12.2" height="24.65" shape-rendering="crispEdges"/><rect fill="#1e293b" x="402.6" y="269.9" width="24.4" height="24.65" shape-rendering="crispEdges"/><rect fill="#1e293b" x="427" y="269.9" width="366" height="24.65" shape-rendering="crispEdges"/><rect fill="#1e293b" x="793" y="269.9" width="24.4" height="24.65" shape-rendering="crispEdges"/><rect fill="#1e293b" x="817.4" y="269.9" width="12.2" height="24.65" shape-rendering="crispEdges"/><rect fill="#0f172a" x="829.6" y="269.9" width="390.4" height="24.65" shape-rendering="crispEdges"/><rect fill="#0f172a" x="0" y="294.3" width="390.4" height="24.65" shape-rendering="crispEdges"/><rect fill="#1e293b" x="390.4" y="294.3" width="12.2" height="24.65" shape-rendering="crispEdges"/><rect fill="#1e293b" x="402.6" y="294.3" width="24.4" height="24.65" shape-rendering="crispEdges"/><rect fill="#22d3ee" x="427" y="294.3" width="12.2" height="24.65" shape-rendering="crispEdges"/><rect fill="#273244" x="439.2" y="294.3" width="341.6" height="24.65" shape-rendering="crispEdges"/><rect fill="#1e293b" x="780.8" y="294.3" width="12.2" height="24.65" shape-rendering="crispEdges"/><rect fill="#1e293b" x="793" y="294.3" width="24.4" height="24.65" shape-rendering="crispEdges"/><rect fill="#1e293b" x="817.4" y="294.3" width="12.2" height="24.65" shape-rendering="crispEdges"/><rect fill="#0f172a" x="829.6" y="294.3" width="390.4" height="24.65" shape-rendering="crispEdges"/><rect fill="#0f172a" x="0" y="318.7" width="390.4" height="24.65" shape-rendering="crispEdges"/><rect fill="#1e293b" x="390.4" y="318.7" width="12.2" height="24.65" shape-rendering="crispEdges"/><rect fill="#1e293b" x="402.6" y="318.7" width="24.4" height="24.65" shape-rendering="crispEdges"/><rect fill="#22d3ee" x="427" y="318.7" width="12.2" height="24.65" shape-rendering="crispEdges"/><rect fill="#273244" x="439.2" y="318.7" width="12.2" height="24.65" shape-rendering="crispEdges"/><rect fill="#2e394c" x="451.4" y="318.7" width="12.2" height="24.65" shape-rendering="crispEdges"/><rect fill="#2e394c" x="463.6" y="318.7" width="195.2" height="24.65" shape-rendering="crispEdges"/><rect fill="#2e394c" x="658.8" y="318.7" width="97.6" height="24.65" shape-rendering="crispEdges"/><rect fill="#2e394c" x="756.4" y="318.7" width="12.2" height="24.65" shape-rendering="crispEdges"/><rect fill="#273244" x="768.6" y="318.7" width="12.2" height="24.65" shape-rendering="crispEdges"/><rect fill="#1e293b" x="780.8" y="318.7" width="12.2" height="24.65" shape-rendering="crispEdges"/><rect fill="#1e293b" x="793" y="318.7" width="24.4" height="24.65" shape-rendering="crispEdges"/><rect fill="#1e293b" x="817.4" y="318.7" width="12.2" height="24.65" shape-rendering="crispEdges"/><rect fill="#0f172a" x="829.6" y="318.7" width="390.4" height="24.65" shape-rendering="crispEdges"/><rect fill="#0f172a" x="0" y="343.1" width="390.4" height="24.65" shape-rendering="crispEdges"/><rect fill="#1e293b" x="390.4" y="343.1" width="12.2" height="24.65" shape-rendering="crispEdges"/><rect fill="#1e293b" x="402.6" y="343.1" width="24.4" height="24.65" shape-rendering="crispEdges"/><rect fill="#22d3ee" x="427" y="343.1" width="12.2" height="24.65" shape-rendering="crispEdges"/><rect fill="#273244" x="439.2" y="343.1" width="12.2" height="24.65" shape-rendering="crispEdges"/><rect fill="#273244" x="451.4" y="343.1" width="12.2" height="24.65" shape-rendering="crispEdges"/><rect fill="#273244" x="463.6" y="343.1" width="219.6" height="24.65" shape-rendering="crispEdges"/><rect fill="#273244" x="683.2" y="343.1" width="73.2" height="24.65" shape-rendering="crispEdges"/><rect fill="#273244" x="756.4" y="343.1" width="12.2" height="24.65" shape-rendering="crispEdges"/><rect fill="#273244" x="768.6" y="343.1" width="12.2" height="24.65" shape-rendering="crispEdges"/><rect fill="#1e293b" x="780.8" y="343.1" width="12.2" height="24.65" shape-rendering="crispEdges"/><rect fill="#1e293b" x="793" y="343.1" width="24.4" height="24.65" shape-rendering="crispEdges"/><rect fill="#1e293b" x="817.4" y="343.1" width="12.2" height="24.65" shape-rendering="crispEdges"/><rect fill="#0f172a" x="829.6" y="343.1" width="390.4" height="24.65" shape-rendering="crispEdges"/><rect fill="#0f172a" x="0" y="367.5" width="390.4" height="24.65" shape-rendering="crispEdges"/><rect fill="#1e293b" x="390.4" y="367.5" width="12.2" height="24.65" shape-rendering="crispEdges"/><rect fill="#1e293b" x="402.6" y="367.5" width="24.4" height="24.65" shape-rendering="crispEdges"/><rect fill="#22d3ee" x="427" y="367.5" width="12.2" height="24.65" shape-rendering="crispEdges"/><rect fill="#273244" x="439.2" y="367.5" width="12.2" height="24.65" shape-rendering="crispEdges"/><rect fill="#273244" x="451.4" y="367.5" width="12.2" height="24.65" shape-rendering="crispEdges"/><rect fill="#273244" x="463.6" y="367.5" width="219.6" height="24.65" shape-rendering="crispEdges"/><rect fill="#273244" x="683.2" y="367.5" width="73.2" height="24.65" shape-rendering="crispEdges"/><rect fill="#273244" x="756.4" y="367.5" width="12.2" height="24.65" shape-rendering="crispEdges"/><rect fill="#273244" x="768.6" y="367.5" width="12.2" height="24.65" shape-rendering="crispEdges"/><rect fill="#1e293b" x="780.8" y="367.5" width="12.2" height="24.65" shape-rendering="crispEdges"/><rect fill="#1e293b" x="793" y="367.5" width="24.4" height="24.65" shape-rendering="crispEdges"/><rect fill="#1e293b" x="817.4" y="367.5" width="12.2" height="24.65" shape-rendering="crispEdges"/><rect fill="#0f172a" x="829.6" y="367.5" width="390.4" height="24.65" shape-rendering="crispEdges"/><rect fill="#0f172a" x="0" y="391.9" width="390.4" height="24.65" shape-rendering="crispEdges"/><rect fill="#1e293b" x="390.4" y="391.9" width="12.2" height="24.65" shape-rendering="crispEdges"/><rect fill="#1e293b" x="402.6" y="391.9" width="24.4" height="24.65" shape-rendering="crispEdges"/><rect fill="#22d3ee" x="427" y="391.9" width="12.2" height="24.65" shape-rendering="crispEdges"/><rect fill="#273244" x="439.2" y="391.9" width="12.2" height="24.65" shape-rendering="crispEdges"/><rect fill="#273244" x="451.4" y="391.9" width="12.2" height="24.65" shape-rendering="crispEdges"/><rect fill="#273244" x="463.6" y="391.9" width="207.4" height="24.65" shape-rendering="crispEdges"/><rect fill="#273244" x="671" y="391.9" width="85.4" height="24.65" shape-rendering="crispEdges"/><rect fill="#273244" x="756.4" y="391.9" width="12.2" height="24.65" shape-rendering="crispEdges"/><rect fill="#273244" x="768.6" y="391.9" width="12.2" height="24.65" shape-rendering="crispEdges"/><rect fill="#1e293b" x="780.8" y="391.9" width="12.2" height="24.65" shape-rendering="crispEdges"/><rect fill="#1e293b" x="793" y="391.9" width="24.4" height="24.65" shape-rendering="crispEdges"/><rect fill="#1e293b" x="817.4" y="391.9" width="12.2" height="24.65" shape-rendering="crispEdges"/><rect fill="#0f172a" x="829.6" y="391.9" width="390.4" height="24.65" shape-rendering="crispEdges"/><rect fill="#0f172a" x="0" y="416.3" width="390.4" height="24.65" shape-rendering="crispEdges"/><rect fill="#1e293b" x="390.4" y="416.3" width="12.2" height="24.65" shape-rendering="crispEdges"/><rect fill="#1e293b" x="402.6" y="416.3" width="24.4" height="24.65" shape-rendering="crispEdges"/><rect fill="#22d3ee" x="427" y="416.3" width="12.2" height="24.65" shape-rendering="crispEdges"/><rect fill="#273244" x="439.2" y="416.3" width="12.2" height="24.65" shape-rendering="crispEdges"/><rect fill="#273244" x="451.4" y="416.3" width="12.2" height="24.65" shape-rendering="crispEdges"/><rect fill="#273244" x="463.6" y="416.3" width="244" height="24.65" shape-rendering="crispEdges"/><rect fill="#273244" x="707.6" y="416.3" width="48.8" height="24.65" shape-rendering="crispEdges"/><rect fill="#273244" x="756.4" y="416.3" width="12.2" height="24.65" shape-rendering="crispEdges"/><rect fill="#273244" x="768.6" y="416.3" width="12.2" height="24.65" shape-rendering="crispEdges"/><rect fill="#1e293b" x="780.8" y="416.3" width="12.2" height="24.65" shape-rendering="crispEdges"/><rect fill="#1e293b" x="793" y="416.3" width="24.4" height="24.65" shape-rendering="crispEdges"/><rect fill="#1e293b" x="817.4" y="416.3" width="12.2" height="24.65" shape-rendering="crispEdges"/><rect fill="#0f172a" x="829.6" y="416.3" width="390.4" height="24.65" shape-rendering="crispEdges"/><rect fill="#0f172a" x="0" y="440.7" width="390.4" height="24.65" shape-rendering="crispEdges"/><rect fill="#1e293b" x="390.4" y="440.7" width="12.2" height="24.65" shape-rendering="crispEdges"/><rect fill="#1e293b" x="402.6" y="440.7" width="24.4" height="24.65" shape-rendering="crispEdges"/><rect fill="#22d3ee" x="427" y="440.7" width="12.2" height="24.65" shape-rendering="crispEdges"/><rect fill="#273244" x="439.2" y="440.7" width="12.2" height="24.65" shape-rendering="crispEdges"/><rect fill="#273244" x="451.4" y="440.7" width="12.2" height="24.65" shape-rendering="crispEdges"/><rect fill="#273244" x="463.6" y="440.7" width="183" height="24.65" shape-rendering="crispEdges"/><rect fill="#273244" x="646.6" y="440.7" width="109.8" height="24.65" shape-rendering="crispEdges"/><rect fill="#273244" x="756.4" y="440.7" width="12.2" height="24.65" shape-rendering="crispEdges"/><rect fill="#273244" x="768.6" y="440.7" width="12.2" height="24.65" shape-rendering="crispEdges"/><rect fill="#1e293b" x="780.8" y="440.7" width="12.2" height="24.65" shape-rendering="crispEdges"/><rect fill="#1e293b" x="793" y="440.7" width="24.4" height="24.65" shape-rendering="crispEdges"/><rect fill="#1e293b" x="817.4" y="440.7" width="12.2" height="24.65" shape-rendering="crispEdges"/><rect fill="#0f172a" x="829.6" y="440.7" width="390.4" height="24.65" shape-rendering="crispEdges"/><rect fill="#0f172a" x="0" y="465.1" width="390.4" height="24.65" shape-rendering="crispEdges"/><rect fill="#1e293b" x="390.4" y="465.1" width="12.2" height="24.65" shape-rendering="crispEdges"/><rect fill="#1e293b" x="402.6" y="465.1" width="24.4" height="24.65" shape-rendering="crispEdges"/><rect fill="#22d3ee" x="427" y="465.1" width="12.2" height="24.65" shape-rendering="crispEdges"/><rect fill="#273244" x="439.2" y="465.1" width="12.2" height="24.65" shape-rendering="crispEdges"/><rect fill="#273244" x="451.4" y="465.1" width="12.2" height="24.65" shape-rendering="crispEdges"/><rect fill="#273244" x="463.6" y="465.1" width="195.2" height="24.65" shape-rendering="crispEdges"/><rect fill="#273244" x="658.8" y="465.1" width="97.6" height="24.65" shape-rendering="crispEdges"/><rect fill="#273244" x="756.4" y="465.1" width="12.2" height="24.65" shape-rendering="crispEdges"/><rect fill="#273244" x="768.6" y="465.1" width="12.2" height="24.65" shape-rendering="crispEdges"/><rect fill="#1e293b" x="780.8" y="465.1" width="12.2" height="24.65" shape-rendering="crispEdges"/><rect fill="#1e293b" x="793" y="465.1" width="24.4" height="24.65" shape-rendering="crispEdges"/><rect fill="#1e293b" x="817.4" y="465.1" width="12.2" height="24.65" shape-rendering="crispEdges"/><rect fill="#0f172a" x="829.6" y="465.1" width="390.4" height="24.65" shape-rendering="crispEdges"/><rect fill="#0f172a" x="0" y="489.5" width="390.4" height="24.65" shape-rendering="crispEdges"/><rect fill="#1e293b" x="390.4" y="489.5" width="12.2" height="24.65" shape-rendering="crispEdges"/><rect fill="#1e293b" x="402.6" y="489.5" width="24.4" height="24.65" shape-rendering="crispEdges"/><rect fill="#22d3ee" x="427" y="489.5" width="12.2" height="24.65" shape-rendering="crispEdges"/><rect fill="#273244" x="439.2" y="489.5" width="12.2" height="24.65" shape-rendering="crispEdges"/><rect fill="#273244" x="451.4" y="489.5" width="12.2" height="24.65" shape-rendering="crispEdges"/><rect fill="#273244" x="463.6" y="489.5" width="146.4" height="24.65" shape-rendering="crispEdges"/><rect fill="#273244" x="610" y="489.5" width="146.4" height="24.65" shape-rendering="crispEdges"/><rect fill="#273244" x="756.4" y="489.5" width="12.2" height="24.65" shape-rendering="crispEdges"/><rect fill="#273244" x="768.6" y="489.5" width="12.2" height="24.65" shape-rendering="crispEdges"/><rect fill="#1e293b" x="780.8" y="489.5" width="12.2" height="24.65" shape-rendering="crispEdges"/><rect fill="#1e293b" x="793" y="489.5" width="24.4" height="24.65" shape-rendering="crispEdges"/><rect fill="#1e293b" x="817.4" y="489.5" width="12.2" height="24.65" shape-rendering="crispEdges"/><rect fill="#0f172a" x="829.6" y="489.5" width="390.4" height="24.65" shape-rendering="crispEdges"/><rect fill="#0f172a" x="0" y="513.9" width="390.4" height="24.65" shape-rendering="crispEdges"/><rect fill="#1e293b" x="390.4" y="513.9" width="12.2" height="24.65" shape-rendering="crispEdges"/><rect fill="#1e293b" x="402.6" y="513.9" width="414.8" height="24.65" shape-rendering="crispEdges"/><rect fill="#1e293b" x="817.4" y="513.9" width="12.2" height="24.65" shape-rendering="crispEdges"/><rect fill="#0f172a" x="829.6" y="513.9" width="390.4" height="24.65" shape-rendering="crispEdges"/><rect fill="#0f172a" x="0" y="538.3" width="390.4" height="24.65" shape-rendering="crispEdges"/><rect fill="#1e293b" x="390.4" y="538.3" width="12.2" height="24.65" shape-rendering="crispEdges"/><rect fill="#1e293b" x="402.6" y="538.3" width="414.8" height="24.65" shape-rendering="crispEdges"/><rect fill="#1e293b" x="817.4" y="538.3" width="12.2" height="24.65" shape-rendering="crispEdges"/><rect fill="#0f172a" x="829.6" y="538.3" width="390.4" height="24.65" shape-rendering="crispEdges"/><rect fill="#0f172a" x="0" y="562.7" width="1220" height="24.65" shape-rendering="crispEdges"/><rect fill="#0f172a" x="0" y="587.1" width="1220" height="24.65" shape-rendering="crispEdges"/><rect fill="#0f172a" x="0" y="611.5" width="1220" height="24.65" shape-rendering="crispEdges"/><rect fill="#0f172a" x="0" y="635.9" width="1220" height="24.65" shape-rendering="crispEdges"/><rect fill="#0f172a" x="0" y="660.3" width="1220" height="24.65" shape-rendering="crispEdges"/><rect fill="#0f172a" x="0" y="684.7" width="1220" height="24.65" shape-rendering="crispEdges"/><rect fill="#0f172a" x="0" y="709.1" width="1220" height="24.65" shape-rendering="crispEdges"/>
    <g class="terminal-1397639570-matrix">
    <text class="terminal-1397639570-r1" x="1220" y="20" textLength="12.2" clip-path="url(#terminal-1397639570-line-0)">
</text><text class="terminal-1397639570-r1" x="1220" y="44.4" textLength="12.2" clip-path="url(#terminal-1397639570-line-1)">
</text><text class="terminal-1397639570-r1" x="1220" y="68.8" textLength="12.2" clip-path="url(#terminal-1397639570-line-2)">
</text><text class="terminal-1397639570-r1" x="1220" y="93.2" textLength="12.2" clip-path="url(#terminal-1397639570-line-3)">
</text><text class="terminal-1397639570-r1" x="1220" y="117.6" textLength="12.2" clip-path="url(#terminal-1397639570-line-4)">
</text><text class="terminal-1397639570-r1" x="1220" y="142" textLength="12.2" clip-path="url(#terminal-1397639570-line-5)">
</text><text class="terminal-1397639570-r1" x="1220" y="166.4" textLength="12.2" clip-path="url(#terminal-1397639570-line-6)">
</text><text class="terminal-1397639570-r2" x="390.4" y="190.8" textLength="12.2" clip-path="url(#terminal-1397639570-line-7)">┌</text><text class="terminal-1397639570-r2" x="402.6" y="190.8" textLength="414.8" clip-path="url(#terminal-1397639570-line-7)">──────────────────────────────────</text><text class="terminal-1397639570-r2" x="817.4" y="190.8" textLength="12.2" clip-path="url(#terminal-1397639570-line-7)">┐</text><text class="terminal-1397639570-r1" x="1220" y="190.8" textLength="12.2" clip-path="url(#terminal-1397639570-line-7)">
</text><text class="terminal-1397639570-r2" x="390.4" y="215.2" textLength="12.2" clip-path="url(#terminal-1397639570-line-8)">│</text><text class="terminal-1397639570-r2" x="817.4" y="215.2" textLength="12.2" clip-path="url(#terminal-1397639570-line-8)">│</text><text class="terminal-1397639570-r1" x="1220" y="215.2" textLength="12.2" clip-path="url(#terminal-1397639570-line-8)">
</text><text class="terminal-1397639570-r2" x="390.4" y="239.6" textLength="12.2" clip-path="url(#terminal-1397639570-line-9)">│</text><text class="terminal-1397639570-r3" x="427" y="239.6" textLength="183" clip-path="url(#terminal-1397639570-line-9)">Project&#160;Actions</text><text class="terminal-1397639570-r2" x="817.4" y="239.6" textLength="12.2" clip-path="url(#terminal-1397639570-line-9)">│</text><text class="terminal-1397639570-r1" x="1220" y="239.6" textLength="12.2" clip-path="url(#terminal-1397639570-line-9)">
</text><text class="terminal-1397639570-r2" x="390.4" y="264" textLength="12.2" clip-path="url(#terminal-1397639570-line-10)">│</text><text class="terminal-1397639570-r4" x="427" y="264" textLength="73.2" clip-path="url(#terminal-1397639570-line-10)">cli-pm</text><text class="terminal-1397639570-r2" x="817.4" y="264" textLength="12.2" clip-path="url(#terminal-1397639570-line-10)">│</text><text class="terminal-1397639570-r1" x="1220" y="264" textLength="12.2" clip-path="url(#terminal-1397639570-line-10)">
</text><text class="terminal-1397639570-r2" x="390.4" y="288.4" textLength="12.2" clip-path="url(#terminal-1397639570-line-11)">│</text><text class="terminal-1397639570-r2" x="817.4" y="288.4" textLength="12.2" clip-path="url(#terminal-1397639570-line-11)">│</text><text class="terminal-1397639570-r1" x="1220" y="288.4" textLength="12.2" clip-path="url(#terminal-1397639570-line-11)">
</text><text class="terminal-1397639570-r2" x="390.4" y="312.8" textLength="12.2" clip-path="url(#terminal-1397639570-line-12)">│</text><text class="terminal-1397639570-r5" x="427" y="312.8" textLength="12.2" clip-path="url(#terminal-1397639570-line-12)">▊</text><text class="terminal-1397639570-r6" x="439.2" y="312.8" textLength="341.6" clip-path="url(#terminal-1397639570-line-12)">▔▔▔▔▔▔▔▔▔▔▔▔▔▔▔▔▔▔▔▔▔▔▔▔▔▔▔▔</text><text class="terminal-1397639570-r6" x="780.8" y="312.8" textLength="12.2" clip-path="url(#terminal-1397639570-line-12)">▎</text><text class="terminal-1397639570-r2" x="817.4" y="312.8" textLength="12.2" clip-path="url(#terminal-1397639570-line-12)">│</text><text class="terminal-1397639570-r1" x="1220" y="312.8" textLength="12.2" clip-path="url(#terminal-1397639570-line-12)">
</text><text class="terminal-1397639570-r2" x="390.4" y="337.2" textLength="12.2" clip-path="url(#terminal-1397639570-line-13)">│</text><text class="terminal-1397639570-r5" x="427" y="337.2" textLength="12.2" clip-path="url(#terminal-1397639570-line-13)">▊</text><text class="terminal-1397639570-r7" x="463.6" y="337.2" textLength="195.2" clip-path="url(#terminal-1397639570-line-13)">(k)&#160;Kill&#160;Session</text><text class="terminal-1397639570-r6" x="780.8" y="337.2" textLength="12.2" clip-path="url(#terminal-1397639570-line-13)">▎</text><text class="terminal-1397639570-r2" x="817.4" y="337.2" textLength="12.2" clip-path="url(#terminal-1397639570-line-13)">│</text><text class="terminal-1397639570-r1" x="1220" y="337.2" textLength="12.2" clip-path="url(#terminal-1397639570-line-13)">
</text><text class="terminal-1397639570-r2" x="390.4" y="361.6" textLength="12.2" clip-path="url(#terminal-1397639570-line-14)">│</text><text class="terminal-1397639570-r5" x="427" y="361.6" textLength="12.2" clip-path="url(#terminal-1397639570-line-14)">▊</text><text class="terminal-1397639570-r8" x="463.6" y="361.6" textLength="219.6" clip-path="url(#terminal-1397639570-line-14)">(d)&#160;Delete&#160;Project</text><text class="terminal-1397639570-r6" x="780.8" y="361.6" textLength="12.2" clip-path="url(#terminal-1397639570-line-14)">▎</text><text class="terminal-1397639570-r2" x="817.4" y="361.6" textLength="12.2" clip-path="url(#terminal-1397639570-line-14)">│</text><text class="terminal-1397639570-r1" x="1220" y="361.6" textLength="12.2" clip-path="url(#terminal-1397639570-line-14)">
</text><text class="terminal-1397639570-r2" x="390.4" y="386" textLength="12.2" clip-path="url(#terminal-1397639570-line-15)">│</text><text class="terminal-1397639570-r5" x="427" y="386" textLength="12.2" clip-path="url(#terminal-1397639570-line-15)">▊</text><text class="terminal-1397639570-r8" x="463.6" y="386" textLength="219.6" clip-path="url(#terminal-1397639570-line-15)">(r)&#160;Rename&#160;Project</text><text class="terminal-1397639570-r6" x="780.8" y="386" textLength="12.2" clip-path="url(#terminal-1397639570-line-15)">▎</text><text class="terminal-1397639570-r2" x="817.4" y="386" textLength="12.2" clip-path="url(#terminal-1397639570-line-15)">│</text><text class="terminal-1397639570-r1" x="1220" y="386" textLength="12.2" clip-path="url(#terminal-1397639570-line-15)">
</text><text class="terminal-1397639570-r2" x="390.4" y="410.4" textLength="12.2" clip-path="url(#terminal-1397639570-line-16)">│</text><text class="terminal-1397639570-r5" x="427" y="410.4" textLength="12.2" clip-path="url(#terminal-1397639570-line-16)">▊</text><text class="terminal-1397639570-r8" x="463.6" y="410.4" textLength="207.4" clip-path="url(#terminal-1397639570-line-16)">(g)&#160;Move&#160;to&#160;Group</text><text class="terminal-1397639570-r6" x="780.8" y="410.4" textLength="12.2" clip-path="url(#terminal-1397639570-line-16)">▎</text><text class="terminal-1397639570-r2" x="817.4" y="410.4" textLength="12.2" clip-path="url(#terminal-1397639570-line-16)">│</text><text class="terminal-1397639570-r1" x="1220" y="410.4" textLength="12.2" clip-path="url(#terminal-1397639570-line-16)">
</text><text class="terminal-1397639570-r2" x="390.4" y="434.8" textLength="12.2" clip-path="url(#terminal-1397639570-line-17)">│</text><text class="terminal-1397639570-r5" x="427" y="434.8" textLength="12.2" clip-path="url(#terminal-1397639570-line-17)">▊</text><text class="terminal-1397639570-r8" x="463.6" y="434.8" textLength="244" clip-path="url(#terminal-1397639570-line-17)">(t)&#160;Open&#160;in&#160;Terminal</text><text class="terminal-1397639570-r6" x="780.8" y="434.8" textLength="12.2" clip-path="url(#terminal-1397639570-line-17)">▎</text><text class="terminal-1397639570-r2" x="817.4" y="434.8" textLength="12.2" clip-path="url(#terminal-1397639570-line-17)">│</text><text class="terminal-1397639570-r1" x="1220" y="434.8" textLength="12.2" clip-path="url(#terminal-1397639570-line-17)">
</text><text class="terminal-1397639570-r2" x="390.4" y="459.2" textLength="12.2" clip-path="url(#terminal-1397639570-line-18)">│</text><text class="terminal-1397639570-r5" x="427" y="459.2" textLength="12.2" clip-path="url(#terminal-1397639570-line-18)">▊</text><text class="terminal-1397639570-r8" x="463.6" y="459.2" textLength="183" clip-path="url(#terminal-1397639570-line-18)">(l)&#160;Save&#160;Layout</text><text class="terminal-1397639570-r6" x="780.8" y="459.2" textLength="12.2" clip-path="url(#terminal-1397639570-line-18)">▎</text><text class="terminal-1397639570-r2" x="817.4" y="459.2" textLength="12.2" clip-path="url(#terminal-1397639570-line-18)">│</text><text class="terminal-1397639570-r1" x="1220" y="459.2" textLength="12.2" clip-path="url(#terminal-1397639570-line-18)">
</text><text class="terminal-1397639570-r2" x="390.4" y="483.6" textLength="12.2" clip-path="url(#terminal-1397639570-line-19)">│</text><text class="terminal-1397639570-r5" x="427" y="483.6" textLength="12.2" clip-path="url(#terminal-1397639570-line-19)">▊</text><text class="terminal-1397639570-r8" x="463.6" y="483.6" textLength="195.2" clip-path="url(#terminal-1397639570-line-19)">(s)&#160;Set&#160;Shortcut</text><text class="terminal-1397639570-r6" x="780.8" y="483.6" textLength="12.2" clip-path="url(#terminal-1397639570-line-19)">▎</text><text class="terminal-1397639570-r2" x="817.4" y="483.6" textLength="12.2" clip-path="url(#terminal-1397639570-line-19)">│</text><text class="terminal-1397639570-r1" x="1220" y="483.6" textLength="12.2" clip-path="url(#terminal-1397639570-line-19)">
</text><text class="terminal-1397639570-r2" x="390.4" y="508" textLength="12.2" clip-path="url(#terminal-1397639570-line-20)">│</text><text class="terminal-1397639570-r5" x="427" y="508" textLength="12.2" clip-path="url(#terminal-1397639570-line-20)">▊</text><text class="terminal-1397639570-r9" x="463.6" y="508" textLength="146.4" clip-path="url(#terminal-1397639570-line-20)">(current:&#160;1)</text><text class="terminal-1397639570-r6" x="780.8" y="508" textLength="12.2" clip-path="url(#terminal-1397639570-line-20)">▎</text><text class="terminal-1397639570-r2" x="817.4" y="508" textLength="12.2" clip-path="url(#terminal-1397639570-line-20)">│</text><text class="terminal-1397639570-r1" x="1220" y="508" textLength="12.2" clip-path="url(#terminal-1397639570-line-20)">
</text><text class="terminal-1397639570-r2" x="390.4" y="532.4" textLength="12.2" clip-path="url(#terminal-1397639570-line-21)">│</text><text class="terminal-1397639570-r2" x="817.4" y="532.4" textLength="12.2" clip-path="url(#terminal-1397639570-line-21)">│</text><text class="terminal-1397639570-r1" x="1220" y="532.4" textLength="12.2" clip-path="url(#terminal-1397639570-line-21)">
</text><text class="terminal-1397639570-r2" x="390.4" y="556.8" textLength="12.2" clip-path="url(#terminal-1397639570-line-22)">└</text><text class="terminal-1397639570-r2" x="402.6" y="556.8" textLength="414.8" clip-path="url(#terminal-1397639570-line-22)">──────────────────────────────────</text><text class="terminal-1397639570-r2" x="817.4" y="556.8" textLength="12.2" clip-path="url(#terminal-1397639570-line-22)">┘</text><text class="terminal-1397639570-r1" x="1220" y="556.8" textLength="12.2" clip-path="url(#terminal-1397639570-line-22)">
</text><text class="terminal-1397639570-r1" x="1220" y="581.2" textLength="12.2" clip-path="url(#terminal-1397639570-line-23)">
</text><text class="terminal-1397639570-r1" x="1220" y="605.6" textLength="12.2" clip-path="url(#terminal-1397639570-line-24)">
</text><text class="terminal-1397639570-r1" x="1220" y="630" textLength="12.2" clip-path="url(#terminal-1397639570-line-25)">
</text><text class="terminal-1397639570-r1" x="1220" y="654.4" textLength="12.2" clip-path="url(#terminal-1397639570-line-26)">
</text><text class="terminal-1397639570-r1" x="1220" y="678.8" textLength="12.2" clip-path="url(#terminal-1397639570-line-27)">
</text><text class="terminal-1397639570-r1" x="1220" y="703.2" textLength="12.2" clip-path="url(#terminal-1397639570-line-28)">
</text>
    </g>
    </g>
</svg>
